<svg width="8" height="8" viewBox="0 0 8 8" fill="none" xmlns="http://www.w3.org/2000/svg">
<g clip-path="url(#clip0_4567_137569)">
<path d="M7.99145 3.99865C7.99145 6.19686 6.20956 7.97875 4.01135 7.97875C1.81322 7.97875 0.03125 6.19686 0.03125 3.99865C0.03125 1.80049 1.81322 0.0185547 4.01135 0.0185547C6.20956 0.0185547 7.99145 1.80049 7.99145 3.99865Z" fill="#1BA27A"/>
<path d="M5.87813 2.02539H2.10938V2.93524H3.53883V4.27255H4.44868V2.93524H5.87813V2.02539Z" fill="white"/>
<path d="M4.00187 4.41471C2.81939 4.41471 1.8607 4.22756 1.8607 3.99668C1.8607 3.76583 2.81935 3.57865 4.00187 3.57865C5.18436 3.57865 6.14301 3.76583 6.14301 3.99668C6.14301 4.22756 5.18436 4.41471 4.00187 4.41471ZM6.40605 4.06637C6.40605 3.76866 5.32968 3.52734 4.00187 3.52734C2.67411 3.52734 1.59766 3.76866 1.59766 4.06637C1.59766 4.32854 2.43232 4.54697 3.53835 4.59536V6.51513H4.44812V4.59612C5.56267 4.54923 6.40605 4.32989 6.40605 4.06637Z" fill="white"/>
</g>
<defs>
<clipPath id="clip0_4567_137569">
<rect width="8" height="8" fill="white"/>
</clipPath>
</defs>
</svg>
