<?xml version="1.0" encoding="utf-8"?>
<!-- Generator: Adobe Illustrator 27.8.1, SVG Export Plug-In . SVG Version: 6.00 Build 0)  -->
<svg version="1.1" id="Layer_1" xmlns="http://www.w3.org/2000/svg" xmlns:xlink="http://www.w3.org/1999/xlink" x="0px" y="0px"
	 viewBox="0 0 114.3 114.3" style="enable-background:new 0 0 114.3 114.3;" xml:space="preserve">
<style type="text/css">
	.st0{fill:#FFFFFF;}
	.st1{fill:none;}
	.st2{fill-rule:evenodd;clip-rule:evenodd;fill:#009393;}
</style>
<ellipse class="st0" cx="56.9" cy="54.2" rx="39.3" ry="30.3"/>
<circle class="st1" cx="57.1" cy="57.1" r="57.1"/>
<path class="st2" d="M26,19.3h63.6c1.5,0,2.9,0.8,3.7,2.1l18.5,31.2c1,1.6,0.7,3.7-0.7,5l-51,48.9c-1.7,1.6-4.3,1.6-6,0L3.2,57.6
	c-1.4-1.3-1.7-3.4-0.6-5.1l19.8-31.3C23.1,20.1,24.5,19.3,26,19.3z M81.3,33.2V42H63.2v6.1c12.7,0.6,22.3,3.3,22.3,6.5v6.7
	c-0.1,3.2-9.6,5.9-22.3,6.5v14.9h-12V67.8c-12.7-0.6-22.3-3.3-22.3-6.5v-6.7c0.1-3.2,9.6-5.9,22.3-6.5V42H33.1v-8.8H81.3z
	 M57.2,63.2c13.6,0,24.9-2.3,27.7-5.3c-2.4-2.6-10.9-4.6-21.7-5.1v6.4c-1.9,0.1-3.9,0.2-6,0.2s-4.1-0.1-6-0.2v-6.4
	c-10.8,0.6-19.3,2.6-21.7,5.1C32.3,60.9,43.7,63.2,57.2,63.2z"/>
</svg>
